<svg xmlns="http://www.w3.org/2000/svg" xmlns:xlink="http://www.w3.org/1999/xlink" width="308" zoomAndPan="magnify" viewBox="0 0 230.87999 227.999995" height="304" preserveAspectRatio="xMidYMid meet" version="1.0"><defs><g/><clipPath id="2466b85cd9"><path d="M 5.574219 4.136719 L 225.210938 4.136719 L 225.210938 223.769531 L 5.574219 223.769531 Z M 5.574219 4.136719 " clip-rule="nonzero"/></clipPath></defs><path fill="#b198ff" d="M 108.539062 65.386719 C 108.375 65.386719 108.21875 65.34375 108.078125 65.261719 L 103.671875 62.714844 C 103.554688 62.644531 103.445312 62.554688 103.367188 62.441406 C 103.128906 62.101562 103.152344 61.667969 103.382812 61.359375 C 104.894531 59.34375 106.757812 57.683594 108.925781 56.429688 L 110.867188 55.304688 C 111.074219 55.1875 111.304688 55.125 111.542969 55.125 C 111.777344 55.125 112.007812 55.1875 112.214844 55.304688 L 117.589844 58.5 C 117.933594 58.703125 117.929688 59.203125 117.582031 59.402344 L 112.367188 62.402344 C 111.167969 63.097656 110.113281 63.996094 109.226562 65.066406 C 109.058594 65.269531 108.808594 65.386719 108.539062 65.386719 Z M 108.539062 65.386719 " fill-opacity="1" fill-rule="nonzero"/><path fill="#b131ff" d="M 106.375 79.421875 C 106.351562 79.421875 106.324219 79.414062 106.300781 79.398438 L 100.324219 75.941406 C 99.910156 75.703125 99.652344 75.257812 99.652344 74.777344 L 99.652344 72.527344 C 99.652344 70.023438 100.152344 67.574219 101.140625 65.253906 C 101.285156 64.914062 101.617188 64.695312 101.984375 64.695312 C 102.144531 64.695312 102.300781 64.738281 102.441406 64.816406 L 106.859375 67.375 C 107.246094 67.597656 107.417969 68.058594 107.265625 68.46875 C 106.78125 69.777344 106.535156 71.140625 106.535156 72.527344 L 106.535156 79.261719 C 106.535156 79.371094 106.441406 79.421875 106.375 79.421875 Z M 106.375 79.421875 " fill-opacity="1" fill-rule="nonzero"/><path fill="#5e17eb" d="M 110.121094 81.398438 C 109.882812 81.398438 109.644531 81.332031 109.433594 81.210938 C 109.214844 81.085938 109.082031 80.851562 109.082031 80.597656 L 109.082031 73.132812 C 109.082031 71.351562 109.550781 69.59375 110.445312 68.039062 C 111.339844 66.488281 112.625 65.199219 114.167969 64.308594 L 120.375 60.71875 C 120.597656 60.574219 121.027344 60.492188 121.351562 60.613281 C 121.769531 60.769531 122.015625 61.277344 122.015625 61.769531 L 122.015625 68.117188 C 122.015625 68.617188 121.746094 69.082031 121.3125 69.332031 C 121.253906 69.367188 119.820312 70.183594 119.191406 70.558594 C 118.914062 70.726562 117.972656 71.332031 117.496094 72.15625 C 117.160156 72.734375 116.996094 73.496094 116.996094 74.480469 L 116.996094 76.820312 C 116.996094 77.320312 116.726562 77.785156 116.292969 78.039062 L 110.808594 81.210938 C 110.601562 81.332031 110.363281 81.398438 110.121094 81.398438 Z M 110.121094 81.398438 " fill-opacity="1" fill-rule="nonzero"/><path fill="#b198ff" d="M 153.675781 65.339844 C 153.402344 65.339844 153.144531 65.21875 152.96875 65.003906 C 152.085938 63.9375 151.03125 63.046875 149.835938 62.359375 L 144.59375 59.324219 C 144.15625 59.070312 143.855469 58.617188 143.789062 58.113281 C 143.488281 55.851562 143.117188 54.222656 142.589844 52.832031 C 142.457031 52.234375 142.667969 51.839844 143.226562 51.628906 C 143.425781 51.554688 143.652344 51.519531 143.894531 51.519531 C 144.53125 51.519531 145.300781 51.769531 146.121094 52.242188 L 153.277344 56.382812 C 155.445312 57.636719 157.308594 59.292969 158.820312 61.3125 C 158.980469 61.523438 159.039062 61.792969 158.988281 62.050781 C 158.933594 62.308594 158.777344 62.527344 158.546875 62.65625 L 154.125 65.214844 C 153.988281 65.296875 153.832031 65.339844 153.675781 65.339844 Z M 153.675781 65.339844 " fill-opacity="1" fill-rule="nonzero"/><path fill="#5e17eb" d="M 133.089844 113.570312 C 132.582031 113.570312 132.175781 113.160156 132.175781 112.65625 L 132.175781 107.539062 C 132.175781 107.09375 132.492188 106.714844 132.9375 106.640625 C 134.332031 106.402344 135.558594 105.960938 136.789062 105.246094 L 149.835938 97.699219 C 151.601562 96.679688 153.078125 95.199219 154.101562 93.417969 C 155.128906 91.636719 155.667969 89.617188 155.667969 87.574219 L 155.667969 72.480469 C 155.667969 71.101562 155.425781 69.742188 154.945312 68.441406 C 154.789062 68.019531 154.957031 67.550781 155.34375 67.328125 L 159.765625 64.769531 C 159.90625 64.691406 160.058594 64.648438 160.222656 64.648438 C 160.589844 64.648438 160.921875 64.867188 161.066406 65.207031 C 162.054688 67.527344 162.554688 69.976562 162.554688 72.480469 L 162.554688 87.574219 C 162.554688 90.824219 161.691406 94.035156 160.0625 96.867188 C 158.433594 99.695312 156.085938 102.050781 153.28125 103.671875 L 140.234375 111.21875 C 138.066406 112.472656 135.699219 113.261719 133.203125 113.566406 C 133.164062 113.566406 133.125 113.570312 133.089844 113.570312 Z M 133.089844 113.570312 " fill-opacity="1" fill-rule="nonzero"/><path fill="#b131ff" d="M 151.820312 90.546875 C 151.660156 90.546875 151.503906 90.503906 151.363281 90.421875 L 145.675781 87.132812 C 144.078125 86.207031 144.101562 84.453125 144.113281 83.875 L 144.113281 83.773438 C 144.113281 82.085938 144.089844 76.066406 144.0625 70.757812 C 144.046875 66.75 144.03125 63.289062 144.03125 62.359375 C 144.03125 62.273438 144.070312 62.214844 144.101562 62.183594 C 144.148438 62.140625 144.210938 62.113281 144.273438 62.113281 C 144.3125 62.113281 144.355469 62.125 144.390625 62.148438 L 148.039062 64.261719 C 151.179688 66.074219 153.128906 69.457031 153.128906 73.089844 L 153.128906 86.964844 C 153.128906 87.964844 152.980469 88.957031 152.6875 89.914062 C 152.574219 90.292969 152.222656 90.546875 151.820312 90.546875 Z M 151.820312 90.546875 " fill-opacity="1" fill-rule="nonzero"/><path fill="#b131ff" d="M 128.449219 113.550781 C 128.410156 113.550781 128.375 113.546875 128.335938 113.542969 C 125.835938 113.242188 123.46875 112.449219 121.304688 111.199219 L 113.769531 106.839844 C 112.589844 106.15625 111.804688 105.425781 111.558594 104.78125 C 111.445312 104.476562 111.457031 104.113281 111.589844 103.878906 C 111.664062 103.757812 111.757812 103.683594 111.886719 103.664062 C 113.289062 103.429688 114.210938 103.253906 116.878906 102.335938 C 117.328125 102.183594 117.785156 102.105469 118.238281 102.105469 C 119.179688 102.105469 119.933594 102.433594 120.398438 102.707031 L 124.746094 105.222656 C 125.9375 105.914062 127.234375 106.382812 128.601562 106.617188 C 129.042969 106.691406 129.363281 107.070312 129.363281 107.515625 L 129.363281 112.632812 C 129.363281 112.878906 129.265625 113.109375 129.09375 113.28125 C 128.917969 113.453125 128.691406 113.550781 128.449219 113.550781 Z M 128.449219 113.550781 " fill-opacity="1" fill-rule="nonzero"/><path fill="#b198ff" d="M 131.007812 103.914062 C 129.128906 103.914062 127.371094 103.449219 126.183594 102.640625 C 125.285156 102.027344 124.328125 101.179688 124.328125 98.855469 L 124.210938 93.480469 C 124.210938 92.898438 124.738281 92.878906 124.796875 92.878906 C 124.902344 92.878906 125 92.902344 125.078125 92.945312 L 129.453125 95.476562 C 129.945312 95.757812 130.472656 95.902344 131.023438 95.902344 C 131.613281 95.902344 132.203125 95.734375 132.785156 95.40625 C 134.550781 94.40625 137.179688 92.875 139.722656 91.394531 C 140.839844 90.746094 141.929688 90.109375 142.910156 89.542969 C 143.265625 89.335938 143.675781 89.226562 144.089844 89.226562 C 144.5 89.226562 144.910156 89.335938 145.265625 89.542969 L 150.25 92.425781 C 150.496094 92.566406 150.660156 92.808594 150.699219 93.089844 C 150.742188 93.363281 150.660156 93.632812 150.472656 93.832031 C 149.789062 94.5625 149.003906 95.1875 148.144531 95.683594 L 136.148438 102.625 C 134.707031 103.457031 132.882812 103.914062 131.007812 103.914062 Z M 131.007812 103.914062 " fill-opacity="1" fill-rule="nonzero"/><path fill="#b131ff" d="M 108.527344 94.75 C 108.605469 94.890625 108.648438 95.046875 108.648438 95.210938 L 108.648438 100.304688 C 108.648438 100.445312 108.625 100.585938 108.566406 100.710938 C 108.390625 101.085938 108.003906 101.28125 107.621094 101.234375 C 105.125 100.933594 102.757812 100.144531 100.589844 98.890625 L 98.648438 97.765625 C 98.445312 97.648438 98.273438 97.480469 98.15625 97.273438 C 98.035156 97.066406 97.972656 96.835938 97.972656 96.601562 L 98.046875 90.335938 C 98.050781 89.9375 98.484375 89.691406 98.828125 89.890625 L 104.03125 92.917969 C 105.230469 93.609375 106.535156 94.078125 107.90625 94.3125 C 108.164062 94.359375 108.390625 94.515625 108.527344 94.75 Z M 108.527344 94.75 " fill-opacity="1" fill-rule="nonzero"/><path fill="#5e17eb" d="M 121.738281 89.609375 C 121.75 89.632812 121.757812 89.660156 121.757812 89.6875 L 121.757812 96.601562 C 121.757812 97.082031 121.5 97.527344 121.085938 97.769531 L 119.140625 98.894531 C 116.976562 100.148438 114.609375 100.9375 112.109375 101.238281 C 111.742188 101.28125 111.386719 101.105469 111.203125 100.785156 C 111.121094 100.644531 111.082031 100.492188 111.082031 100.328125 L 111.082031 95.214844 C 111.082031 94.765625 111.394531 94.390625 111.824219 94.316406 C 113.195312 94.085938 114.5 93.613281 115.699219 92.921875 L 121.519531 89.550781 C 121.613281 89.496094 121.707031 89.554688 121.738281 89.609375 Z M 121.738281 89.609375 " fill-opacity="1" fill-rule="nonzero"/><path fill="#b198ff" d="M 121.574219 85.371094 C 121.695312 85.578125 121.757812 85.816406 121.757812 86.058594 C 121.757812 86.3125 121.625 86.546875 121.40625 86.671875 L 114.953125 90.40625 C 113.414062 91.292969 111.65625 91.765625 109.867188 91.765625 C 108.078125 91.765625 106.320312 91.292969 104.78125 90.40625 L 98.574219 86.8125 C 98.335938 86.691406 98.054688 86.359375 97.996094 86.015625 C 97.921875 85.574219 98.238281 85.109375 98.664062 84.863281 L 104.152344 81.6875 C 104.585938 81.4375 105.121094 81.4375 105.554688 81.6875 C 105.609375 81.722656 107.035156 82.558594 107.671875 82.914062 C 107.957031 83.070312 108.949219 83.585938 109.902344 83.589844 C 110.570312 83.589844 111.308594 83.351562 112.160156 82.859375 L 114.183594 81.6875 C 114.617188 81.4375 115.15625 81.4375 115.585938 81.6875 L 121.074219 84.859375 C 121.277344 84.988281 121.453125 85.160156 121.574219 85.371094 Z M 121.574219 85.371094 " fill-opacity="1" fill-rule="nonzero"/><path fill="#b131ff" d="M 85.917969 55.609375 C 86.054688 55.847656 86.078125 56.128906 85.980469 56.386719 C 85.503906 57.6875 85.257812 59.046875 85.257812 60.429688 L 85.257812 66.496094 C 85.257812 67.003906 85.019531 67.488281 84.613281 67.800781 C 82.808594 69.1875 81.585938 70.324219 80.644531 71.480469 C 80.199219 71.894531 79.753906 71.910156 79.289062 71.527344 C 79.125 71.390625 78.980469 71.214844 78.859375 71.003906 C 78.539062 70.449219 78.375 69.65625 78.375 68.710938 L 78.375 60.429688 C 78.375 57.921875 78.875 55.472656 79.863281 53.15625 C 79.964844 52.910156 80.167969 52.726562 80.417969 52.644531 C 80.667969 52.558594 80.933594 52.585938 81.160156 52.71875 L 85.585938 55.273438 C 85.722656 55.355469 85.835938 55.472656 85.917969 55.609375 Z M 85.917969 55.609375 " fill-opacity="1" fill-rule="nonzero"/><path fill="#b198ff" d="M 137.898438 49.355469 C 138.152344 49.792969 138 50.355469 137.566406 50.609375 L 133.144531 53.164062 C 132.757812 53.390625 132.269531 53.300781 131.984375 52.953125 C 131.078125 51.859375 130.085938 51.019531 128.851562 50.304688 L 115.804688 42.757812 C 114.039062 41.738281 112.023438 41.195312 109.972656 41.195312 C 107.921875 41.195312 105.90625 41.738281 104.140625 42.757812 L 91.09375 50.304688 C 89.898438 50.996094 88.847656 51.886719 87.960938 52.953125 C 87.675781 53.300781 87.1875 53.386719 86.800781 53.164062 L 82.382812 50.609375 C 82.238281 50.527344 82.128906 50.414062 82.046875 50.273438 C 81.863281 49.957031 81.886719 49.558594 82.109375 49.261719 C 83.621094 47.246094 85.484375 45.585938 87.652344 44.332031 L 100.699219 36.785156 C 103.503906 35.160156 106.710938 34.304688 109.972656 34.304688 C 113.234375 34.304688 116.441406 35.164062 119.25 36.785156 L 132.296875 44.332031 C 134.460938 45.585938 136.328125 47.246094 137.835938 49.261719 C 137.859375 49.292969 137.878906 49.324219 137.898438 49.355469 Z M 137.898438 49.355469 " fill-opacity="1" fill-rule="nonzero"/><path fill="#5e17eb" d="M 108.632812 44.613281 C 108.710938 44.75 108.753906 44.910156 108.753906 45.070312 L 108.753906 51.65625 C 108.753906 53.503906 107.226562 54.359375 106.722656 54.640625 L 106.632812 54.6875 C 105.175781 55.53125 99.988281 58.5625 95.410156 61.238281 C 91.953125 63.261719 88.96875 65.003906 88.164062 65.46875 C 88.089844 65.511719 88.023438 65.503906 87.980469 65.492188 C 87.917969 65.476562 87.863281 65.433594 87.832031 65.378906 C 87.8125 65.34375 87.800781 65.304688 87.800781 65.257812 L 87.800781 61.035156 C 87.800781 57.40625 89.75 54.023438 92.890625 52.207031 L 104.882812 45.269531 C 105.746094 44.769531 106.675781 44.402344 107.652344 44.175781 C 108.039062 44.085938 108.433594 44.261719 108.632812 44.613281 Z M 108.632812 44.613281 " fill-opacity="1" fill-rule="nonzero"/><path fill="#5e17eb" d="M 140.203125 53.394531 C 140.21875 53.425781 140.238281 53.457031 140.253906 53.492188 C 141.242188 55.8125 141.742188 58.261719 141.742188 60.765625 L 141.742188 69.484375 C 141.742188 70.851562 141.503906 71.898438 141.066406 72.429688 C 140.859375 72.683594 140.542969 72.855469 140.273438 72.855469 C 140.132812 72.855469 140.023438 72.804688 139.941406 72.707031 C 139.035156 71.609375 138.417969 70.894531 136.296875 69.035156 C 135.941406 68.722656 135.644531 68.367188 135.417969 67.972656 C 134.949219 67.15625 134.855469 66.339844 134.859375 65.800781 L 134.859375 60.765625 C 134.859375 59.386719 134.613281 58.027344 134.136719 56.726562 C 133.980469 56.304688 134.144531 55.835938 134.53125 55.613281 L 138.957031 53.058594 C 139.167969 52.933594 139.414062 52.902344 139.652344 52.964844 C 139.882812 53.03125 140.082031 53.183594 140.203125 53.394531 Z M 140.203125 53.394531 " fill-opacity="1" fill-rule="nonzero"/><path fill="#b131ff" d="M 130.59375 55.988281 C 131.535156 57.617188 132.011719 59.375 131.90625 60.8125 C 131.824219 61.898438 131.570312 63.152344 129.558594 64.316406 L 124.976562 67.105469 C 124.46875 67.398438 124.191406 66.945312 124.160156 66.894531 C 124.109375 66.808594 124.078125 66.710938 124.074219 66.617188 L 124.074219 61.558594 C 124.074219 60.992188 123.9375 60.460938 123.660156 59.980469 C 123.367188 59.472656 122.925781 59.042969 122.351562 58.703125 C 120.605469 57.671875 117.964844 56.15625 115.414062 54.6875 C 114.292969 54.042969 113.199219 53.414062 112.222656 52.851562 C 111.863281 52.644531 111.566406 52.34375 111.355469 51.984375 C 111.148438 51.625 111.042969 51.21875 111.042969 50.804688 L 111.042969 45.039062 C 111.042969 44.757812 111.167969 44.492188 111.390625 44.316406 C 111.605469 44.144531 111.878906 44.082031 112.144531 44.144531 C 113.117188 44.371094 114.050781 44.738281 114.914062 45.238281 L 126.910156 52.175781 C 128.347656 53.007812 129.660156 54.363281 130.59375 55.988281 Z M 130.59375 55.988281 " fill-opacity="1" fill-rule="nonzero"/><path fill="#5e17eb" d="M 133.984375 79.835938 C 134.066406 79.695312 134.183594 79.578125 134.324219 79.5 L 138.726562 76.953125 C 138.847656 76.882812 138.980469 76.832031 139.117188 76.820312 C 139.53125 76.785156 139.894531 77.019531 140.046875 77.375 C 141.03125 79.695312 141.535156 82.144531 141.535156 84.648438 L 141.535156 86.898438 C 141.535156 87.136719 141.472656 87.367188 141.355469 87.574219 C 141.234375 87.777344 141.066406 87.949219 140.863281 88.066406 L 135.414062 91.132812 C 135.066406 91.328125 134.636719 91.078125 134.636719 90.675781 L 134.652344 84.648438 C 134.652344 83.261719 134.40625 81.898438 133.921875 80.589844 C 133.828125 80.34375 133.851562 80.070312 133.984375 79.835938 Z M 133.984375 79.835938 " fill-opacity="1" fill-rule="nonzero"/><path fill="#b198ff" d="M 122.9375 70.941406 C 122.949219 70.917969 122.96875 70.902344 122.992188 70.886719 L 128.96875 67.429688 C 129.382812 67.191406 129.898438 67.191406 130.3125 67.429688 L 132.257812 68.554688 C 134.421875 69.808594 136.289062 71.46875 137.796875 73.484375 C 138.019531 73.777344 138.042969 74.175781 137.859375 74.496094 C 137.78125 74.636719 137.667969 74.746094 137.527344 74.828125 L 133.105469 77.386719 C 132.71875 77.609375 132.234375 77.527344 131.957031 77.191406 C 131.070312 76.117188 130.015625 75.222656 128.816406 74.527344 L 122.992188 71.160156 C 122.902344 71.105469 122.90625 70.996094 122.9375 70.941406 Z M 122.9375 70.941406 " fill-opacity="1" fill-rule="nonzero"/><path fill="#b131ff" d="M 119.355469 73.203125 C 119.476562 72.996094 119.648438 72.820312 119.859375 72.699219 C 120.078125 72.574219 120.347656 72.574219 120.566406 72.699219 L 127.015625 76.429688 C 128.554688 77.320312 129.84375 78.613281 130.738281 80.164062 C 131.632812 81.714844 132.105469 83.480469 132.105469 85.257812 L 132.105469 92.441406 C 132.117188 92.707031 131.96875 93.117188 131.703125 93.339844 C 131.359375 93.625 130.796875 93.582031 130.375 93.335938 L 124.886719 90.164062 C 124.453125 89.914062 124.183594 89.445312 124.183594 88.945312 C 124.183594 88.878906 124.195312 87.230469 124.183594 86.496094 C 124.179688 86.171875 124.128906 85.050781 123.652344 84.226562 C 123.320312 83.644531 122.746094 83.125 121.894531 82.632812 L 119.871094 81.460938 C 119.4375 81.210938 119.167969 80.742188 119.167969 80.242188 L 119.167969 73.894531 C 119.171875 73.652344 119.234375 73.414062 119.355469 73.203125 Z M 119.355469 73.203125 " fill-opacity="1" fill-rule="nonzero"/><path fill="#5e17eb" d="M 111.460938 119.023438 C 111.597656 118.785156 111.832031 118.625 112.101562 118.578125 C 113.464844 118.34375 114.761719 117.875 115.953125 117.183594 L 121.199219 114.152344 C 121.636719 113.898438 122.179688 113.863281 122.648438 114.058594 C 124.75 114.929688 126.34375 115.425781 127.808594 115.660156 C 128.394531 115.84375 128.628906 116.222656 128.53125 116.816406 C 128.496094 117.023438 128.414062 117.238281 128.292969 117.449219 C 127.972656 118.003906 127.371094 118.542969 126.550781 119.019531 L 119.394531 123.160156 C 117.230469 124.414062 114.863281 125.203125 112.363281 125.503906 C 112.105469 125.535156 111.839844 125.453125 111.644531 125.28125 C 111.445312 125.105469 111.335938 124.863281 111.335938 124.59375 L 111.335938 119.480469 C 111.339844 119.316406 111.378906 119.160156 111.460938 119.023438 Z M 111.460938 119.023438 " fill-opacity="1" fill-rule="nonzero"/><path fill="#b131ff" d="M 80.0625 77.042969 C 80.316406 76.605469 80.875 76.457031 81.3125 76.707031 L 85.734375 79.265625 C 86.121094 79.492188 86.289062 79.957031 86.132812 80.378906 C 85.640625 81.707031 85.410156 82.992188 85.410156 84.417969 L 85.410156 99.515625 C 85.410156 101.558594 85.949219 103.574219 86.976562 105.355469 C 88 107.136719 89.476562 108.617188 91.242188 109.636719 L 104.289062 117.183594 C 105.480469 117.875 106.777344 118.34375 108.140625 118.574219 C 108.585938 118.652344 108.90625 119.03125 108.90625 119.476562 L 108.90625 124.59375 C 108.90625 124.753906 108.863281 124.90625 108.785156 125.046875 C 108.597656 125.367188 108.242188 125.546875 107.878906 125.5 C 105.378906 125.199219 103.011719 124.410156 100.847656 123.15625 L 87.800781 115.609375 C 84.992188 113.984375 82.648438 111.632812 81.019531 108.800781 C 79.386719 105.972656 78.523438 102.761719 78.523438 99.515625 L 78.523438 84.417969 C 78.523438 81.914062 79.027344 79.464844 80.015625 77.144531 C 80.027344 77.113281 80.046875 77.078125 80.0625 77.042969 Z M 80.0625 77.042969 " fill-opacity="1" fill-rule="nonzero"/><path fill="#b198ff" d="M 90.597656 104.8125 C 90.675781 104.671875 90.792969 104.554688 90.933594 104.476562 L 96.625 101.183594 C 98.222656 100.261719 99.726562 101.160156 100.21875 101.457031 L 100.308594 101.507812 C 101.765625 102.355469 106.980469 105.339844 111.582031 107.972656 C 115.054688 109.960938 118.058594 111.679688 118.863281 112.144531 C 118.9375 112.1875 118.964844 112.25 118.976562 112.292969 C 118.992188 112.355469 118.980469 112.421875 118.949219 112.476562 C 118.929688 112.511719 118.898438 112.539062 118.863281 112.5625 L 115.210938 114.675781 C 112.074219 116.488281 108.175781 116.488281 105.039062 114.675781 L 93.042969 107.734375 C 92.179688 107.234375 91.398438 106.613281 90.714844 105.878906 C 90.441406 105.589844 90.394531 105.160156 90.597656 104.8125 Z M 90.597656 104.8125 " fill-opacity="1" fill-rule="nonzero"/><path fill="#b198ff" d="M 82.402344 73.027344 C 82.417969 72.996094 82.441406 72.964844 82.464844 72.933594 C 83.972656 70.917969 85.839844 69.257812 88.003906 68.003906 L 95.539062 63.648438 C 96.71875 62.964844 97.746094 62.648438 98.421875 62.757812 C 98.746094 62.8125 99.050781 63.003906 99.1875 63.234375 C 99.257812 63.359375 99.269531 63.476562 99.222656 63.597656 C 98.726562 64.933594 98.417969 65.824219 97.875 68.59375 C 97.785156 69.058594 97.621094 69.492188 97.394531 69.886719 C 96.925781 70.703125 96.265625 71.191406 95.796875 71.460938 L 91.445312 73.976562 C 90.253906 74.664062 89.199219 75.558594 88.316406 76.625 C 88.027344 76.96875 87.539062 77.058594 87.15625 76.835938 L 82.734375 74.277344 C 82.519531 74.15625 82.371094 73.957031 82.308594 73.71875 C 82.246094 73.484375 82.28125 73.238281 82.402344 73.027344 Z M 82.402344 73.027344 " fill-opacity="1" fill-rule="nonzero"/><path fill="#5e17eb" d="M 89.449219 80.070312 C 90.386719 78.4375 91.667969 77.144531 92.960938 76.519531 C 93.941406 76.046875 95.152344 75.640625 97.164062 76.800781 L 101.867188 79.386719 C 102.371094 79.679688 102.121094 80.144531 102.09375 80.199219 C 102.042969 80.285156 101.972656 80.359375 101.894531 80.410156 L 97.519531 82.9375 C 97.03125 83.222656 96.640625 83.609375 96.367188 84.085938 C 96.070312 84.597656 95.921875 85.195312 95.914062 85.863281 C 95.898438 87.894531 95.90625 90.941406 95.914062 93.890625 C 95.914062 95.183594 95.917969 96.449219 95.921875 97.578125 C 95.921875 97.992188 95.8125 98.402344 95.605469 98.761719 C 95.398438 99.117188 95.101562 99.417969 94.742188 99.625 L 89.757812 102.507812 C 89.511719 102.648438 89.222656 102.671875 88.957031 102.566406 C 88.703125 102.464844 88.511719 102.261719 88.433594 102 C 88.140625 101.042969 87.996094 100.050781 87.996094 99.050781 L 87.996094 85.171875 C 87.996094 83.507812 88.511719 81.691406 89.449219 80.070312 Z M 89.449219 80.070312 " fill-opacity="1" fill-rule="nonzero"/><g clip-path="url(#2466b85cd9)"><path fill="#ffffff" d="M 115.394531 4.136719 C 54.71875 4.136719 5.574219 53.277344 5.574219 113.953125 C 5.574219 174.628906 54.71875 223.769531 115.394531 223.769531 C 176.066406 223.769531 225.210938 174.628906 225.210938 113.953125 C 225.210938 53.277344 176.066406 4.136719 115.394531 4.136719 Z M 115.394531 201.808594 C 66.855469 201.808594 27.539062 162.492188 27.539062 113.953125 C 27.539062 65.414062 66.855469 26.097656 115.394531 26.097656 C 163.933594 26.097656 203.246094 65.414062 203.246094 113.953125 C 203.246094 162.492188 163.933594 201.808594 115.394531 201.808594 Z M 115.394531 201.808594 " fill-opacity="1" fill-rule="nonzero"/></g><g fill="#b131ff" fill-opacity="1"><g transform="translate(54.356379, 154.874349)"><g><path d="M 0.988281 -0.40625 C 1.769531 -0.0273438 3.394531 0.40625 5.050781 0.40625 C 8.445312 0.40625 10.183594 -1.855469 10.183594 -4.757812 C 10.183594 -7.339844 8.242188 -8.910156 6.414062 -10.300781 C 4.699219 -11.550781 3.074219 -12.738281 3.074219 -14.480469 C 3.074219 -16.074219 4.265625 -17.324219 5.976562 -17.324219 C 7.691406 -17.324219 8.589844 -16.308594 8.792969 -16.164062 L 9.023438 -17.671875 C 8.53125 -18.019531 7.371094 -18.425781 6.007812 -18.425781 C 2.785156 -18.425781 1.277344 -16.570312 1.277344 -13.957031 C 1.277344 -11.433594 3.25 -9.894531 5.105469 -8.472656 C 6.761719 -7.226562 8.328125 -5.949219 8.328125 -4.035156 C 8.328125 -2.496094 7.253906 -0.667969 5.164062 -0.667969 C 3.597656 -0.667969 2.03125 -1.335938 1.277344 -1.828125 Z M 0.988281 -0.40625 "/></g></g></g><g fill="#ffffff" fill-opacity="1"><g transform="translate(65.464165, 154.874349)"><g><path d="M 1.945312 -4.496094 C 1.945312 -2.523438 1.828125 -0.785156 1.769531 0 L 4.148438 0 C 4.089844 -0.785156 4.035156 -2.523438 4.035156 -4.496094 L 4.035156 -5.542969 C 4.035156 -7.398438 5.28125 -9.664062 6.992188 -9.664062 C 8.820312 -9.664062 9.429688 -8.242188 9.429688 -5.660156 C 9.429688 -1.449219 9.34375 -0.347656 9.316406 0 L 11.664062 0 C 11.605469 -0.523438 11.519531 -2.234375 11.519531 -4.992188 C 11.519531 -6.558594 11.519531 -6.878906 11.460938 -7.167969 C 11.347656 -9.082031 10.5625 -10.910156 7.804688 -10.910156 C 6.152344 -10.910156 4.441406 -9.546875 4.035156 -8.066406 L 4.035156 -14.304688 C 4.035156 -16.742188 4.089844 -18.484375 4.148438 -19.09375 L 1.769531 -18.890625 C 1.800781 -18.890625 1.945312 -17.410156 1.945312 -13.289062 Z M 1.945312 -4.496094 "/></g></g></g><g fill="#ffffff" fill-opacity="1"><g transform="translate(78.694051, 154.874349)"><g><path d="M 11.054688 -1.042969 C 10.792969 -0.929688 10.476562 -0.8125 10.214844 -0.839844 C 9.605469 -0.898438 9.402344 -1.449219 9.402344 -2.261719 L 9.402344 -6.355469 C 9.402344 -8.648438 9.285156 -10.910156 6.152344 -10.910156 C 5.050781 -10.910156 3.25 -10.386719 2.003906 -9.460938 L 2.351562 -8.558594 C 3.074219 -9.167969 4.382812 -9.925781 5.542969 -9.925781 C 7.253906 -9.925781 7.3125 -8.007812 7.3125 -7.050781 L 7.3125 -6.007812 L 3.453125 -4.613281 C 1.742188 -4.003906 1.160156 -3.453125 1.160156 -2.03125 C 1.160156 -0.433594 2.320312 0.289062 4.003906 0.289062 C 5.28125 0.289062 6.527344 -0.261719 7.457031 -1.042969 C 7.691406 -0.378906 8.269531 0.261719 9.285156 0.261719 C 10.15625 0.261719 10.941406 -0.0273438 11.257812 -0.230469 Z M 4.699219 -0.839844 C 3.683594 -0.839844 3.105469 -1.160156 3.105469 -2.320312 C 3.105469 -3.367188 3.917969 -3.742188 5.484375 -4.292969 L 7.3125 -4.960938 L 7.3125 -1.972656 C 6.730469 -1.335938 5.367188 -0.839844 4.699219 -0.839844 Z M 4.699219 -0.839844 "/></g></g></g><g fill="#ffffff" fill-opacity="1"><g transform="translate(90.53132, 154.874349)"><g><path d="M 4.382812 -0.320312 L 4.960938 -0.0585938 C 3.074219 2.207031 1.335938 5.804688 1.304688 5.863281 L 1.335938 6.269531 L 2.261719 6.269531 C 2.988281 4.613281 5.078125 1.625 6.617188 -0.261719 C 8.996094 -3.132812 10.738281 -5.832031 10.648438 -9.054688 C 10.621094 -9.691406 10.535156 -10.300781 10.503906 -10.5625 L 9.054688 -10.792969 C 9.226562 -10.039062 9.371094 -9.140625 9.371094 -8.242188 C 9.371094 -5.773438 7.195312 -2.699219 6.121094 -1.394531 C 5.367188 -3.425781 4.730469 -5.222656 3.859375 -7.457031 C 3.480469 -8.558594 3.105469 -9.894531 2.929688 -10.621094 L 0.40625 -10.621094 C 0.667969 -10.039062 1.160156 -8.851562 1.597656 -7.777344 C 1.914062 -7.023438 2.003906 -6.675781 2.148438 -6.269531 Z M 4.382812 -0.320312 "/></g></g></g><g fill="#808080" fill-opacity="1"><g transform="translate(102.133983, 154.874349)"><g/></g></g><g fill="#b131ff" fill-opacity="1"><g transform="translate(109.618995, 154.874349)"><g><path d="M 0.988281 -0.40625 C 1.769531 -0.0273438 3.394531 0.40625 5.050781 0.40625 C 8.445312 0.40625 10.183594 -1.855469 10.183594 -4.757812 C 10.183594 -7.339844 8.242188 -8.910156 6.414062 -10.300781 C 4.699219 -11.550781 3.074219 -12.738281 3.074219 -14.480469 C 3.074219 -16.074219 4.265625 -17.324219 5.976562 -17.324219 C 7.691406 -17.324219 8.589844 -16.308594 8.792969 -16.164062 L 9.023438 -17.671875 C 8.53125 -18.019531 7.371094 -18.425781 6.007812 -18.425781 C 2.785156 -18.425781 1.277344 -16.570312 1.277344 -13.957031 C 1.277344 -11.433594 3.25 -9.894531 5.105469 -8.472656 C 6.761719 -7.226562 8.328125 -5.949219 8.328125 -4.035156 C 8.328125 -2.496094 7.253906 -0.667969 5.164062 -0.667969 C 3.597656 -0.667969 2.03125 -1.335938 1.277344 -1.828125 Z M 0.988281 -0.40625 "/></g></g></g><g fill="#ffffff" fill-opacity="1"><g transform="translate(120.726783, 154.874349)"><g><path d="M 11.054688 -1.042969 C 10.792969 -0.929688 10.476562 -0.8125 10.214844 -0.839844 C 9.605469 -0.898438 9.402344 -1.449219 9.402344 -2.261719 L 9.402344 -6.355469 C 9.402344 -8.648438 9.285156 -10.910156 6.152344 -10.910156 C 5.050781 -10.910156 3.25 -10.386719 2.003906 -9.460938 L 2.351562 -8.558594 C 3.074219 -9.167969 4.382812 -9.925781 5.542969 -9.925781 C 7.253906 -9.925781 7.3125 -8.007812 7.3125 -7.050781 L 7.3125 -6.007812 L 3.453125 -4.613281 C 1.742188 -4.003906 1.160156 -3.453125 1.160156 -2.03125 C 1.160156 -0.433594 2.320312 0.289062 4.003906 0.289062 C 5.28125 0.289062 6.527344 -0.261719 7.457031 -1.042969 C 7.691406 -0.378906 8.269531 0.261719 9.285156 0.261719 C 10.15625 0.261719 10.941406 -0.0273438 11.257812 -0.230469 Z M 4.699219 -0.839844 C 3.683594 -0.839844 3.105469 -1.160156 3.105469 -2.320312 C 3.105469 -3.367188 3.917969 -3.742188 5.484375 -4.292969 L 7.3125 -4.960938 L 7.3125 -1.972656 C 6.730469 -1.335938 5.367188 -0.839844 4.699219 -0.839844 Z M 4.699219 -0.839844 "/></g></g></g><g fill="#ffffff" fill-opacity="1"><g transform="translate(132.564052, 154.874349)"><g><path d="M 11.257812 -14.304688 C 11.257812 -16.742188 11.347656 -18.484375 11.402344 -19.09375 L 9.023438 -18.890625 C 9.082031 -18.308594 9.167969 -16.597656 9.167969 -14.160156 L 9.167969 -9.519531 C 8.472656 -10.273438 7.371094 -10.941406 5.949219 -10.941406 C 3.335938 -10.941406 1.015625 -9.113281 1.015625 -5.308594 C 1.015625 -1.566406 3.367188 0.289062 5.949219 0.289062 C 7.339844 0.289062 8.53125 -0.726562 9.226562 -1.597656 C 9.285156 -0.898438 9.34375 -0.320312 9.402344 0 L 11.402344 0 C 11.347656 -0.785156 11.257812 -2.523438 11.257812 -4.496094 Z M 6.644531 -0.753906 C 4.933594 -0.753906 3.132812 -2.207031 3.132812 -5.28125 C 3.132812 -8.386719 4.875 -9.894531 6.5 -9.894531 C 7.777344 -9.894531 8.675781 -9.054688 9.167969 -8.210938 L 9.167969 -2.757812 C 8.734375 -1.914062 7.863281 -0.753906 6.644531 -0.753906 Z M 6.644531 -0.753906 "/></g></g></g><g fill="#ffffff" fill-opacity="1"><g transform="translate(145.735911, 154.874349)"><g><path d="M 1.597656 -14.449219 L 3.570312 -13.433594 L 4.496094 -15.320312 L 2.523438 -16.335938 Z M 1.914062 -4.496094 C 1.914062 -2.523438 1.828125 -0.785156 1.769531 0 L 4.148438 0 C 4.089844 -0.785156 4.003906 -2.523438 4.003906 -4.496094 L 4.003906 -6.296875 C 4.003906 -8.734375 4.089844 -10.300781 4.148438 -10.792969 L 1.769531 -10.589844 C 1.828125 -10.128906 1.914062 -8.617188 1.914062 -6.179688 Z M 1.914062 -4.496094 "/></g></g></g><g fill="#ffffff" fill-opacity="1"><g transform="translate(151.654545, 154.874349)"><g><path d="M 4.003906 -5.367188 C 4.003906 -7.285156 5.195312 -9.664062 6.878906 -9.664062 C 9.167969 -9.664062 9.257812 -7.226562 9.257812 -5.949219 L 9.257812 -3.945312 C 9.257812 -1.828125 9.199219 -0.464844 9.140625 0 L 11.460938 0 C 11.433594 -0.464844 11.347656 -1.886719 11.347656 -4.035156 L 11.347656 -6.382812 C 11.347656 -7.980469 10.941406 -10.910156 7.804688 -10.910156 C 6.121094 -10.910156 4.527344 -9.546875 4.035156 -8.152344 C 4.089844 -9.605469 4.121094 -10.503906 4.148438 -10.792969 L 1.769531 -10.589844 C 1.828125 -10.097656 1.914062 -8.503906 1.914062 -6.066406 L 1.914062 -4.496094 C 1.914062 -2.523438 1.828125 -0.785156 1.769531 0 L 4.148438 0 C 4.089844 -0.378906 4.003906 -2.757812 4.003906 -5.367188 Z M 4.003906 -5.367188 "/></g></g></g><g fill="#ffffff" fill-opacity="1"><g transform="translate(164.68134, 154.874349)"><g><path d="M 11.054688 -1.042969 C 10.792969 -0.929688 10.476562 -0.8125 10.214844 -0.839844 C 9.605469 -0.898438 9.402344 -1.449219 9.402344 -2.261719 L 9.402344 -6.355469 C 9.402344 -8.648438 9.285156 -10.910156 6.152344 -10.910156 C 5.050781 -10.910156 3.25 -10.386719 2.003906 -9.460938 L 2.351562 -8.558594 C 3.074219 -9.167969 4.382812 -9.925781 5.542969 -9.925781 C 7.253906 -9.925781 7.3125 -8.007812 7.3125 -7.050781 L 7.3125 -6.007812 L 3.453125 -4.613281 C 1.742188 -4.003906 1.160156 -3.453125 1.160156 -2.03125 C 1.160156 -0.433594 2.320312 0.289062 4.003906 0.289062 C 5.28125 0.289062 6.527344 -0.261719 7.457031 -1.042969 C 7.691406 -0.378906 8.269531 0.261719 9.285156 0.261719 C 10.15625 0.261719 10.941406 -0.0273438 11.257812 -0.230469 Z M 4.699219 -0.839844 C 3.683594 -0.839844 3.105469 -1.160156 3.105469 -2.320312 C 3.105469 -3.367188 3.917969 -3.742188 5.484375 -4.292969 L 7.3125 -4.960938 L 7.3125 -1.972656 C 6.730469 -1.335938 5.367188 -0.839844 4.699219 -0.839844 Z M 4.699219 -0.839844 "/></g></g></g><g fill="#b131ff" fill-opacity="1"><g transform="translate(73.127248, 176.778351)"><g><path d="M 0.792969 0 L 1.738281 0 L 1.738281 -3.476562 L 3.765625 -3.476562 L 3.765625 -4.210938 L 1.738281 -4.210938 L 1.738281 -6.460938 L 4.070312 -6.460938 L 4.070312 -7.242188 L 0.792969 -7.242188 Z M 0.792969 0 "/></g></g></g><g fill="#b131ff" fill-opacity="1"><g transform="translate(77.464925, 176.778351)"><g><path d="M 3.570312 -2.132812 C 3.570312 -1.363281 3.007812 -0.59375 2.34375 -0.59375 C 1.503906 -0.59375 1.457031 -1.386719 1.457031 -1.902344 L 1.457031 -4.257812 L 0.59375 -4.257812 L 0.59375 -1.65625 C 0.59375 -1.015625 0.78125 0.128906 2.042969 0.128906 C 2.71875 0.128906 3.394531 -0.339844 3.605469 -0.980469 L 3.605469 0.0117188 L 4.445312 0.0117188 L 4.445312 -4.257812 L 3.570312 -4.257812 Z M 3.570312 -2.132812 "/></g></g></g><g fill="#b131ff" fill-opacity="1"><g transform="translate(82.642156, 176.778351)"><g><path d="M 0.734375 0 L 1.609375 0 L 1.609375 -7.476562 L 0.734375 -7.476562 Z M 0.734375 0 "/></g></g></g><g fill="#b131ff" fill-opacity="1"><g transform="translate(84.9859, 176.778351)"><g><path d="M 0.734375 0 L 1.609375 0 L 1.609375 -7.476562 L 0.734375 -7.476562 Z M 0.734375 0 "/></g></g></g><g fill="#b131ff" fill-opacity="1"><g transform="translate(87.329644, 176.778351)"><g><path d="M 0.523438 -1.996094 L 3.535156 -1.984375 L 3.535156 -2.636719 L 0.523438 -2.636719 Z M 0.523438 -1.996094 "/></g></g></g><g fill="#b131ff" fill-opacity="1"><g transform="translate(91.387471, 176.778351)"><g><path d="M 0.375 -0.210938 C 0.511719 -0.128906 1.097656 0.164062 2.007812 0.164062 C 3.335938 0.164062 4.164062 -0.664062 4.164062 -1.84375 C 4.164062 -2.902344 3.359375 -3.523438 2.625 -4.058594 C 1.867188 -4.605469 1.445312 -4.980469 1.445312 -5.585938 C 1.445312 -6.195312 1.796875 -6.625 2.53125 -6.625 C 3.125 -6.625 3.675781 -6.261719 3.753906 -6.203125 L 3.753906 -7.054688 C 3.617188 -7.148438 3.089844 -7.40625 2.414062 -7.40625 C 1.269531 -7.40625 0.488281 -6.707031 0.488281 -5.644531 C 0.488281 -4.640625 1.15625 -4.058594 1.925781 -3.511719 C 2.496094 -3.101562 3.230469 -2.53125 3.230469 -1.84375 C 3.230469 -1.257812 2.835938 -0.628906 1.984375 -0.628906 C 1.144531 -0.628906 0.582031 -0.933594 0.375 -1.027344 Z M 0.375 -0.210938 "/></g></g></g><g fill="#b131ff" fill-opacity="1"><g transform="translate(95.876737, 176.778351)"><g><path d="M 0.304688 -3.59375 L 0.875 -3.59375 L 0.875 -2.179688 C 0.875 -0.734375 0.980469 0.117188 2.074219 0.117188 C 2.578125 0.117188 3.042969 -0.0351562 3.359375 -0.269531 L 3.242188 -0.886719 C 2.960938 -0.722656 2.671875 -0.605469 2.402344 -0.605469 C 1.773438 -0.605469 1.75 -1.15625 1.75 -2.320312 L 1.75 -3.59375 L 3.171875 -3.59375 L 3.171875 -4.269531 L 1.75 -4.269531 L 1.75 -5.9375 L 0.886719 -5.9375 L 0.886719 -4.269531 L 0.304688 -4.269531 Z M 0.304688 -3.59375 "/></g></g></g><g fill="#b131ff" fill-opacity="1"><g transform="translate(99.561433, 176.778351)"><g><path d="M 4.269531 -0.570312 C 4.164062 -0.558594 4.046875 -0.546875 3.917969 -0.546875 C 3.710938 -0.546875 3.558594 -0.804688 3.558594 -1.132812 L 3.558594 -2.695312 C 3.558594 -3.582031 3.511719 -4.398438 2.355469 -4.398438 C 1.914062 -4.398438 1.050781 -4.164062 0.546875 -3.882812 L 0.769531 -3.253906 C 1.269531 -3.535156 1.84375 -3.71875 2.167969 -3.71875 C 2.707031 -3.71875 2.730469 -3.230469 2.730469 -2.800781 L 2.730469 -2.578125 L 1.226562 -2.054688 C 0.570312 -1.832031 0.304688 -1.421875 0.304688 -0.851562 C 0.304688 -0.246094 0.769531 0.105469 1.445312 0.105469 C 1.972656 0.105469 2.472656 -0.09375 2.835938 -0.417969 C 2.925781 -0.152344 3.160156 0.117188 3.558594 0.117188 C 3.90625 0.117188 4.140625 0.0234375 4.269531 -0.0351562 Z M 1.726562 -0.5 C 1.316406 -0.5 1.074219 -0.664062 1.074219 -1.050781 C 1.074219 -1.375 1.339844 -1.503906 1.84375 -1.679688 L 2.730469 -1.972656 L 2.730469 -0.96875 C 2.496094 -0.710938 1.996094 -0.5 1.726562 -0.5 Z M 1.726562 -0.5 "/></g></g></g><g fill="#b131ff" fill-opacity="1"><g transform="translate(104.155641, 176.778351)"><g><path d="M 2.742188 -3.664062 C 3.230469 -3.664062 3.59375 -3.5 3.8125 -3.417969 L 3.871094 -4.117188 C 3.699219 -4.199219 3.277344 -4.386719 2.742188 -4.386719 C 1.492188 -4.386719 0.351562 -3.652344 0.351562 -2.132812 C 0.351562 -0.664062 1.351562 0.117188 2.636719 0.117188 C 3.21875 0.117188 3.699219 -0.140625 3.882812 -0.246094 L 3.8125 -0.933594 C 3.59375 -0.828125 3.277344 -0.617188 2.777344 -0.617188 C 1.972656 -0.617188 1.226562 -1.109375 1.214844 -2.144531 C 1.203125 -3.148438 1.984375 -3.664062 2.742188 -3.664062 Z M 2.742188 -3.664062 "/></g></g></g><g fill="#b131ff" fill-opacity="1"><g transform="translate(108.388376, 176.778351)"><g><path d="M 2.449219 -2.496094 L 4.316406 -4.257812 L 3.265625 -4.257812 L 1.65625 -2.707031 L 1.65625 -7.476562 L 0.734375 -7.476562 L 0.734375 0 L 1.65625 0 L 1.65625 -2.121094 C 2.730469 -1.890625 3.265625 -1.292969 3.71875 0 L 4.640625 0 C 4.140625 -1.503906 3.476562 -2.285156 2.449219 -2.496094 Z M 2.449219 -2.496094 "/></g></g></g><g fill="#b131ff" fill-opacity="1"><g transform="translate(113.285756, 176.778351)"><g/></g></g><g fill="#b131ff" fill-opacity="1"><g transform="translate(116.072596, 176.778351)"><g><path d="M 0.792969 -7.242188 L 0.792969 0 L 3.171875 0 C 5.410156 0 6.929688 -1.398438 6.929688 -3.6875 C 6.929688 -5.808594 5.480469 -7.242188 3.125 -7.242188 Z M 1.738281 -0.78125 L 1.738281 -6.460938 L 3.089844 -6.460938 C 4.839844 -6.460938 5.996094 -5.367188 5.996094 -3.570312 C 5.996094 -1.890625 4.898438 -0.78125 3.101562 -0.78125 Z M 1.738281 -0.78125 "/></g></g></g><g fill="#b131ff" fill-opacity="1"><g transform="translate(123.255417, 176.778351)"><g><path d="M 4.140625 -2.238281 C 4.175781 -2.425781 4.199219 -2.625 4.199219 -2.902344 C 4.175781 -3.675781 3.59375 -4.386719 2.601562 -4.386719 C 1.515625 -4.386719 0.351562 -3.675781 0.351562 -2.109375 C 0.351562 -0.605469 1.351562 0.128906 2.507812 0.128906 C 3.171875 0.128906 3.8125 -0.234375 3.976562 -0.375 L 3.929688 -0.96875 C 3.777344 -0.875 3.171875 -0.582031 2.601562 -0.582031 C 1.914062 -0.582031 1.179688 -1.027344 1.167969 -2.15625 L 1.167969 -2.285156 Z M 2.554688 -3.730469 C 3.183594 -3.730469 3.417969 -3.300781 3.453125 -2.859375 L 1.316406 -2.871094 C 1.527344 -3.359375 1.972656 -3.730469 2.554688 -3.730469 Z M 2.554688 -3.730469 "/></g></g></g><g fill="#b131ff" fill-opacity="1"><g transform="translate(127.80298, 176.778351)"><g><path d="M 2.835938 0 L 4.664062 -4.246094 L 3.699219 -4.257812 L 2.378906 -0.875 L 1.050781 -4.269531 L 0.09375 -4.269531 L 1.902344 0 Z M 2.835938 0 "/></g></g></g><g fill="#b131ff" fill-opacity="1"><g transform="translate(132.560434, 176.778351)"><g><path d="M 4.140625 -2.238281 C 4.175781 -2.425781 4.199219 -2.625 4.199219 -2.902344 C 4.175781 -3.675781 3.59375 -4.386719 2.601562 -4.386719 C 1.515625 -4.386719 0.351562 -3.675781 0.351562 -2.109375 C 0.351562 -0.605469 1.351562 0.128906 2.507812 0.128906 C 3.171875 0.128906 3.8125 -0.234375 3.976562 -0.375 L 3.929688 -0.96875 C 3.777344 -0.875 3.171875 -0.582031 2.601562 -0.582031 C 1.914062 -0.582031 1.179688 -1.027344 1.167969 -2.15625 L 1.167969 -2.285156 Z M 2.554688 -3.730469 C 3.183594 -3.730469 3.417969 -3.300781 3.453125 -2.859375 L 1.316406 -2.871094 C 1.527344 -3.359375 1.972656 -3.730469 2.554688 -3.730469 Z M 2.554688 -3.730469 "/></g></g></g><g fill="#b131ff" fill-opacity="1"><g transform="translate(137.107997, 176.778351)"><g><path d="M 0.734375 0 L 1.609375 0 L 1.609375 -7.476562 L 0.734375 -7.476562 Z M 0.734375 0 "/></g></g></g><g fill="#b131ff" fill-opacity="1"><g transform="translate(139.451741, 176.778351)"><g><path d="M 2.554688 0.128906 C 3.710938 0.128906 4.816406 -0.59375 4.816406 -2.132812 C 4.816406 -3.605469 3.742188 -4.386719 2.589844 -4.386719 C 1.445312 -4.386719 0.351562 -3.640625 0.351562 -2.132812 C 0.351562 -0.628906 1.410156 0.128906 2.554688 0.128906 Z M 1.191406 -2.132812 C 1.179688 -3.089844 1.855469 -3.640625 2.566406 -3.664062 C 3.277344 -3.675781 3.953125 -3.160156 3.976562 -2.132812 C 3.988281 -1.144531 3.3125 -0.617188 2.601562 -0.605469 C 1.867188 -0.59375 1.203125 -1.074219 1.191406 -2.132812 Z M 1.191406 -2.132812 "/></g></g></g><g fill="#b131ff" fill-opacity="1"><g transform="translate(144.617309, 176.778351)"><g><path d="M 2.925781 -4.375 C 2.355469 -4.375 1.878906 -4.070312 1.515625 -3.675781 L 1.410156 -4.257812 L 0.734375 -4.257812 L 0.734375 2.15625 L 1.621094 2.15625 L 1.621094 -0.476562 C 1.890625 -0.164062 2.34375 0.128906 2.890625 0.128906 C 3.894531 0.128906 4.921875 -0.59375 4.921875 -2.121094 C 4.921875 -3.628906 3.964844 -4.375 2.925781 -4.375 Z M 2.707031 -0.59375 C 2.191406 -0.59375 1.820312 -0.886719 1.609375 -1.179688 L 1.609375 -2.996094 C 1.785156 -3.265625 2.144531 -3.652344 2.648438 -3.652344 C 3.382812 -3.652344 4.070312 -3.113281 4.070312 -2.074219 C 4.070312 -1.121094 3.359375 -0.59375 2.707031 -0.59375 Z M 2.707031 -0.59375 "/></g></g></g><g fill="#b131ff" fill-opacity="1"><g transform="translate(149.887819, 176.778351)"><g><path d="M 4.140625 -2.238281 C 4.175781 -2.425781 4.199219 -2.625 4.199219 -2.902344 C 4.175781 -3.675781 3.59375 -4.386719 2.601562 -4.386719 C 1.515625 -4.386719 0.351562 -3.675781 0.351562 -2.109375 C 0.351562 -0.605469 1.351562 0.128906 2.507812 0.128906 C 3.171875 0.128906 3.8125 -0.234375 3.976562 -0.375 L 3.929688 -0.96875 C 3.777344 -0.875 3.171875 -0.582031 2.601562 -0.582031 C 1.914062 -0.582031 1.179688 -1.027344 1.167969 -2.15625 L 1.167969 -2.285156 Z M 2.554688 -3.730469 C 3.183594 -3.730469 3.417969 -3.300781 3.453125 -2.859375 L 1.316406 -2.871094 C 1.527344 -3.359375 1.972656 -3.730469 2.554688 -3.730469 Z M 2.554688 -3.730469 "/></g></g></g><g fill="#b131ff" fill-opacity="1"><g transform="translate(154.435382, 176.778351)"><g><path d="M 2.765625 -4.410156 C 2.15625 -4.410156 1.75 -3.894531 1.609375 -3.535156 L 1.609375 -4.257812 L 0.734375 -4.257812 L 0.734375 0 L 1.609375 0 L 1.609375 -2.25 C 1.609375 -2.730469 2.042969 -3.652344 2.742188 -3.652344 C 2.882812 -3.652344 2.996094 -3.617188 3.101562 -3.558594 L 3.160156 -4.316406 C 3.101562 -4.363281 2.9375 -4.410156 2.765625 -4.410156 Z M 2.765625 -4.410156 "/></g></g></g></svg>